<svg xmlns="http://www.w3.org/2000/svg" viewBox="0 0 288 264.95"><defs><style>.cls-1{fill:#fff;}</style></defs><g id="Layer_2" data-name="Layer 2"><g id="Layer_1-2" data-name="Layer 1"><path class="cls-1" d="M56.26.05h0c52.36,19.36,59,66.21,58.11,93,0,0-10.58-12-29.38-24.28A85.47,85.47,0,0,0,55.78,56.65,63.3,63.3,0,0,1,52,46.55C44.39,19.06,55.79-1.1,56.26.05Z"/><path class="cls-1" d="M.13,78.21h0c58.15-26.37,99,14.88,113.32,32.92,0,0-46,24.65-83.63,3.13C5.05,100.08-1,77.72.13,78.21Z"/><path class="cls-1" d="M158.33,243C144.05,257.31,124.81,265,104.22,265c-43.83,0-75.7-27.89-75.7-68.08,0-19.6,8.29-34.85,20.26-44.81,0,0,20.5-16.31,58.88-16.31h28.93v-22c0-19.92,7.64-38.84,21.59-52.45C172.46,47,191.72,39.38,212.29,39.38c43.83,0,75.71,27.89,75.71,68.06,0,19.59-8.31,34.86-20.26,44.83v-.21C279.69,162,288,177.27,288,196.87c0,40.19-31.88,68.08-75.71,68.08-20.57,0-39.83-7.64-54.11-21.93Zm22.09-108h36.52c2.66,0,26.89-.66,26.89-25.56,0-19.26-14.94-27.23-31.54-27.23-18.59,0-31.87,13.94-31.87,31.54Zm0,55.58c0,17.58,13.28,31.54,31.87,31.54,16.6,0,31.54-8,31.54-27.23,0-24.9-24.23-25.56-26.89-25.56H180.42Zm-44.33-21.25H99.58c-2.66,0-26.89.66-26.89,25.56,0,19.26,14.92,27.23,31.53,27.23,18.59,0,31.87-14,31.87-31.54Z"/></g></g></svg>