<?xml version="1.0" encoding="utf-8"?>
<!-- Generator: Adobe Illustrator 24.2.3, SVG Export Plug-In . SVG Version: 6.00 Build 0)  -->
<svg version="1.1" id="Layer_1" xmlns="http://www.w3.org/2000/svg" xmlns:xlink="http://www.w3.org/1999/xlink" x="0px" y="0px"
	 viewBox="0 0 720 205" style="enable-background:new 0 0 720 205;" xml:space="preserve">
<style type="text/css">
	.st0{fill:#F58220;}
	.st1{fill:#A8CA68;}
	.st2{fill:#CF1988;}
</style>
<path class="st0" d="M349.3,190.5h-7.5v-15.1l-13.2-24.2h8.4l8.5,16.8l8.6-16.8h8.4l-13.2,24.2V190.5z"/>
<path class="st0" d="M416.6,170.7c0,11.4-8.1,20.5-19.2,20.5c-11.2,0-19.3-9.1-19.3-20.5c0-11.4,8.1-20.4,19.3-20.4
	C408.5,150.3,416.6,159.3,416.6,170.7z M409,170.7c0-7.3-5.2-13.4-11.7-13.4c-6.5,0-11.7,6.1-11.7,13.4c0,7.4,5.2,13.4,11.7,13.4
	C403.8,184.2,409,178.1,409,170.7z"/>
<path class="st0" d="M474.9,190.5H468v-4.2c-2.6,3.1-6.8,4.9-11.7,4.9c-10.7,0-19.1-8.9-19.1-20.5c0-11.5,8.4-20.5,19.1-20.5
	c8.7,0,15.4,4.9,17.9,13.1h-8c-1.5-3.5-5.3-6.3-9.8-6.3c-6.5,0-11.6,6.2-11.6,13.7c0,7.4,5.3,13.7,12,13.7c5.6,0,10-3.8,11.4-8.8
	h-10.6v-7h17.5V190.5z"/>
<path class="st0" d="M528.3,175c0,10-5.3,16.3-15.2,16.3c-9.9,0-15.1-6.2-15.1-16.3v-23.7h7.5v24c0,5.8,2.5,8.8,7.6,8.8
	c5.1,0,7.7-2.9,7.7-8.8v-24h7.5V175z"/>
<path class="st0" d="M583.2,190.5h-7.6c-0.5-1.1-0.8-2.5-0.8-4.3v-6c0-3.3-1.6-4.9-5.1-4.9h-10.2v15.2h-7.5v-39.3h18
	c8.2,0,13.5,4.4,13.5,11.7c0,4.5-2.1,7.4-5.5,8.9c2.8,1.5,4.3,4.2,4.3,8.4v5.5C582.3,187.2,582.8,189.4,583.2,190.5z M570.2,168.6
	c1,0,5.8-0.4,5.8-5.3c0-1.3,0-5.2-6-5.2h-10.5v10.4H570.2z"/>
<path class="st0" d="M621.5,158.2v32.3h-7.5v-32.3h-10.5v-7h28.6v7H621.5z"/>
<g>
	<path class="st1" d="M329.1,7.6C329.1,7.7,329.1,7.6,329.1,7.6c25.5,9.4,28.7,32.3,28.3,45.3c0,0-5.2-5.8-14.3-11.8
		c-7.2-4.7-14.2-5.9-14.2-5.9c-0.7-1.6-1.4-3.2-1.8-4.9C323.3,16.9,328.9,7.1,329.1,7.6z"/>
</g>
<g>
	<path class="st1" d="M301.7,45.7C301.8,45.7,301.7,45.7,301.7,45.7c28.3-12.8,48.3,7.3,55.2,16c0,0-22.4,12-40.8,1.5
		C304.1,56.4,301.2,45.5,301.7,45.7z"/>
</g>
<path class="st2" d="M378.8,126c-7,7-16.3,10.7-26.4,10.7c-21.4,0-36.9-13.6-36.9-33.2c0-9.5,4-17,9.9-21.8c0,0,10-7.9,28.7-7.9
	c1.5,0,14.1,0,14.1,0h0V63c0-9.7,3.7-18.9,10.5-25.6c7-7,16.3-10.7,26.4-10.7c21.4,0,36.9,13.6,36.9,33.2c0,9.5-4,17-9.9,21.8v-0.1
	c5.8,4.9,9.9,12.3,9.9,21.8c0,19.6-15.5,33.2-36.9,33.2C395.1,136.7,385.7,133,378.8,126L378.8,126z M389.6,73.4h17.8
	c1.3,0,13.1-0.3,13.1-12.5c0-9.4-7.3-13.3-15.4-13.3c-9.1,0-15.5,6.8-15.5,15.4V73.4z M389.6,100.5c0,8.6,6.5,15.4,15.5,15.4
	c8.1,0,15.4-3.9,15.4-13.3c0-12.1-11.8-12.5-13.1-12.5h-17.8V100.5z M368,90.1h-17.8c-1.3,0-13.1,0.3-13.1,12.5
	c0,9.4,7.3,13.3,15.4,13.3c9.1,0,15.5-6.8,15.5-15.4V90.1z"/>
<path class="st1" d="M117.2,103.9c0,17.8-12.5,31.5-31.6,31.5c-9.5,0-17.3-3.8-22.5-9.9c-5.3,6.1-13.1,9.9-22.3,9.9
	c-19.5,0-31.1-12.9-31.1-31.5V63.4h18v41c0,4,1.4,13.4,13.1,13.4c8,0,13.6-5.4,13.6-13.4v-41h18v41c0,4,1.4,13.4,13.2,13.4
	c7.9,0,13.6-5.4,13.6-13.4v-41h18V103.9z"/>
<path class="st1" d="M155.6,133.6h-18V63.4h18V133.6z"/>
<path class="st1" d="M175.4,32.2h18.1v71.9c0,9.9,4.5,13.5,13.4,12.9v16.3c-20.6,2.2-31.5-10.1-31.5-29.3V32.2z"/>
<path class="st1" d="M288.5,98.6c0,20.3-14.8,36.6-36,36.6c-21.3,0-36.1-16.3-36.1-36.6c0-20.2,15.1-36.6,33.5-36.6
	c8.3,0,15.1,2.6,20.6,8.2V32.2h18V98.6z M252.5,78.6c-9.9,0-18,8.6-18,20.2c0,11.2,8,19.8,18,19.8c9.9,0,18-8.9,18-19.8
	C270.5,87.6,262.4,78.6,252.5,78.6z"/>
<path class="st1" d="M527.7,111.3c-4.1,14.3-16.5,24-33.9,24c-19.9,0-36-16.3-36-36.6c0-20.3,16.1-36.9,36-36.9
	c16.9,0,31.1,10.6,34.5,29.4l-49.6,20.8c3.5,4.8,8.8,7.5,15,7.5c5.9,0,11.9-2.6,14.9-8.2H527.7z M507.6,83.7
	c-3.3-3.9-8.2-6.3-13.9-6.3c-10.4,0-18.7,8.2-19.1,20.2L507.6,83.7z"/>
<path class="st1" d="M580.7,79c-11.4-2-19.1,4.1-19.1,14v40.6h-18V93c0-19.9,13.8-33.8,37.1-30.9V79z"/>
<path class="st1" d="M631.7,79c-11.4-2-19.1,4.1-19.1,14v40.6h-18V93c0-19.9,13.8-33.8,37-30.9V79z"/>
<path class="st1" d="M710.2,136.5c0,18.9-12.4,31.5-31.2,31.5c-15.4,0-28.1-10.1-30.5-24.5h18.7c1.1,5.2,5.7,7.8,11.9,7.8
	c9.8,0,13.2-6.9,13.2-13.5v-8.2c-4.2,3.5-9.7,5.7-16.1,5.7c-17.2,0-28.6-12.4-28.6-30.8v-41h18v41c0,4,1.4,13.8,13.1,13.8
	c8,0,13.6-5.9,13.6-13.8v-41h18V136.5z"/>
<path class="st1" d="M156.5,42.3c0,5.6-4.5,10.1-10.1,10.1c-5.6,0-10.1-4.5-10.1-10.1c0-5.6,4.5-10.1,10.1-10.1
	C151.9,32.2,156.5,36.7,156.5,42.3z"/>
</svg>
