<svg xmlns="http://www.w3.org/2000/svg" viewBox="0 0 700.6 183.72"><defs><style>.cls-1{fill:#fff;}</style></defs><g id="Layer_2" data-name="Layer 2"><g id="Layer_1-2" data-name="Layer 1"><path class="cls-1" d="M339.6,182.92h-7.5v-15.1l-13.2-24.2h8.4l8.5,16.8,8.6-16.8h8.4l-13.2,24.2v15.1Z"/><path class="cls-1" d="M406.9,163.12c0,11.4-8.1,20.5-19.2,20.5s-19.3-9.1-19.3-20.5,8.1-20.4,19.3-20.4S406.9,151.72,406.9,163.12Zm-7.6,0c0-7.3-5.2-13.4-11.7-13.4s-11.7,6.1-11.7,13.4,5.2,13.4,11.7,13.4S399.3,170.52,399.3,163.12Z"/><path class="cls-1" d="M465.2,182.92h-6.9v-4.2c-2.6,3.1-6.8,4.9-11.7,4.9-10.7,0-19.1-8.9-19.1-20.5s8.4-20.5,19.1-20.5c8.7,0,15.4,4.9,17.9,13.1h-8a10.75,10.75,0,0,0-9.8-6.3c-6.5,0-11.6,6.2-11.6,13.7s5.3,13.7,12,13.7a11.82,11.82,0,0,0,11.4-8.8H447.9v-7h17.5v21.9Z"/><path class="cls-1" d="M518.6,167.42c0,10-5.3,16.3-15.2,16.3s-15.1-6.2-15.1-16.3v-23.7h7.5v24c0,5.8,2.5,8.8,7.6,8.8s7.7-2.9,7.7-8.8v-24h7.5Z"/><path class="cls-1" d="M573.5,182.92h-7.6a10.3,10.3,0,0,1-.8-4.3v-6c0-3.3-1.6-4.9-5.1-4.9H549.8v15.2h-7.5v-39.3h18c8.2,0,13.5,4.4,13.5,11.7,0,4.5-2.1,7.4-5.5,8.9,2.8,1.5,4.3,4.2,4.3,8.4v5.5A17.08,17.08,0,0,0,573.5,182.92Zm-13-21.9c1,0,5.8-.4,5.8-5.3,0-1.3,0-5.2-6-5.2H549.8v10.4h10.7Z"/><path class="cls-1" d="M611.8,150.62v32.3h-7.5v-32.3H593.8v-7h28.6v7Z"/><path class="cls-1" d="M319.4,0h0c25.5,9.4,28.7,32.3,28.3,45.3a79.84,79.84,0,0,0-14.3-11.8,41.88,41.88,0,0,0-14.2-5.9,28.8,28.8,0,0,1-1.8-4.9C313.6,9.32,319.2-.48,319.4,0Z"/><path class="cls-1" d="M292,38.12h0c28.3-12.8,48.3,7.3,55.2,16,0,0-22.4,12-40.8,1.5C294.4,48.82,291.5,37.92,292,38.12Z"/><path class="cls-1" d="M369.1,118.42a36.78,36.78,0,0,1-26.4,10.7c-21.4,0-36.9-13.6-36.9-33.2,0-9.5,4-17,9.9-21.8,0,0,10-7.9,28.7-7.9h14.1V55.42A35.74,35.74,0,0,1,369,29.82a36.78,36.78,0,0,1,26.4-10.7c21.4,0,36.9,13.6,36.9,33.2,0,9.5-4,17-9.9,21.8V74a27.87,27.87,0,0,1,9.9,21.8c0,19.6-15.5,33.2-36.9,33.2a36.06,36.06,0,0,1-26.3-10.6Zm10.8-52.6h17.8c1.3,0,13.1-.3,13.1-12.5,0-9.4-7.3-13.3-15.4-13.3a15.06,15.06,0,0,0-15.5,15.4Zm0,27.1a15.12,15.12,0,0,0,15.5,15.4c8.1,0,15.4-3.9,15.4-13.3,0-12.1-11.8-12.5-13.1-12.5H379.9Zm-21.6-10.4H340.5c-1.3,0-13.1.3-13.1,12.5,0,9.4,7.3,13.3,15.4,13.3a15.06,15.06,0,0,0,15.5-15.4Z"/><path class="cls-1" d="M107.5,96.32c0,17.8-12.5,31.5-31.6,31.5-9.5,0-17.3-3.8-22.5-9.9a29,29,0,0,1-22.3,9.9c-19.5,0-31.1-12.9-31.1-31.5V55.82H18v41c0,4,1.4,13.4,13.1,13.4,8,0,13.6-5.4,13.6-13.4v-41h18v41c0,4,1.4,13.4,13.2,13.4,7.9,0,13.6-5.4,13.6-13.4v-41h18Z"/><path class="cls-1" d="M145.9,126h-18V55.82h18Z"/><path class="cls-1" d="M165.7,24.62h18.1v71.9c0,9.9,4.5,13.5,13.4,12.9v16.3c-20.6,2.2-31.5-10.1-31.5-29.3Z"/><path class="cls-1" d="M278.8,91c0,20.3-14.8,36.6-36,36.6s-36.1-16.3-36.1-36.6,15.1-36.6,33.5-36.6c8.3,0,15.1,2.6,20.6,8.2v-38h18Zm-36-20c-9.9,0-18,8.6-18,20.2,0,11.2,8,19.8,18,19.8s18-8.9,18-19.8C260.8,80,252.7,71,242.8,71Z"/><path class="cls-1" d="M518,103.72c-4.1,14.3-16.5,24-33.9,24-19.9,0-36-16.3-36-36.6s16.1-36.9,36-36.9c16.9,0,31.1,10.6,34.5,29.4L469,104.42a18.07,18.07,0,0,0,15,7.5c5.9,0,11.9-2.6,14.9-8.2Zm-20.1-27.6a17.93,17.93,0,0,0-13.9-6.3c-10.4,0-18.7,8.2-19.1,20.2Z"/><path class="cls-1" d="M571,71.42c-11.4-2-19.1,4.1-19.1,14V126h-18V85.42c0-19.9,13.8-33.8,37.1-30.9Z"/><path class="cls-1" d="M622,71.42c-11.4-2-19.1,4.1-19.1,14V126h-18V85.42c0-19.9,13.8-33.8,37-30.9v16.9Z"/><path class="cls-1" d="M700.5,128.92c0,18.9-12.4,31.5-31.2,31.5-15.4,0-28.1-10.1-30.5-24.5h18.7c1.1,5.2,5.7,7.8,11.9,7.8,9.8,0,13.2-6.9,13.2-13.5V122a24.83,24.83,0,0,1-16.1,5.7c-17.2,0-28.6-12.4-28.6-30.8v-41h18v41c0,4,1.4,13.8,13.1,13.8,8,0,13.6-5.9,13.6-13.8v-41h18v73Z"/><path class="cls-1" d="M146.8,34.72a10.1,10.1,0,1,1-10.1-10.1A10.07,10.07,0,0,1,146.8,34.72Z"/></g></g></svg>